<?xml version="1.0" encoding="UTF-8" standalone="no" ?>
<!DOCTYPE svg PUBLIC "-//W3C//DTD SVG 1.1//EN" "http://www.w3.org/Graphics/SVG/1.1/DTD/svg11.dtd">
<svg xmlns="http://www.w3.org/2000/svg" xmlns:xlink="http://www.w3.org/1999/xlink" version="1.1" width="1280" height="1024" viewBox="0 0 1280 1024" xml:space="preserve">
<desc>Created with Fabric.js 5.3.0</desc>
<defs>
</defs>
<g transform="matrix(1 0 0 1 640 512)" id="background-logo"  >
<rect style="stroke: none; stroke-width: 0; stroke-dasharray: none; stroke-linecap: butt; stroke-dashoffset: 0; stroke-linejoin: miter; stroke-miterlimit: 4; fill: rgb(255,255,255); fill-opacity: 0; fill-rule: nonzero; opacity: 1;"  paint-order="stroke"  x="-640" y="-512" rx="0" ry="0" width="1280" height="1024" />
</g>
<g transform="matrix(1.9211538461538462 0 0 1.9211538461538462 679.0244255295584 573.391117002861)" id="text-logo"  >
<g style=""  paint-order="stroke"   >
		<g transform="matrix(1 0 0 1 0 0)" id="text-logo-path-0"  >
<path style="stroke: none; stroke-width: 0; stroke-dasharray: none; stroke-linecap: butt; stroke-dashoffset: 0; stroke-linejoin: miter; stroke-miterlimit: 4; fill: rgb(98,204,238); fill-rule: nonzero; opacity: 1;"  paint-order="stroke"  transform=" translate(-92.10000000000001, 18.1)" d="M 0.45 -0.66 L 12.16 -36.2 Q 13.17 -36.36 14.59 -36.44 Q 16.01 -36.52 17.07 -36.52 L 17.07 -36.52 Q 18.07 -36.52 19.52 -36.44 Q 20.96 -36.36 21.97 -36.15 L 21.97 -36.15 L 33.36 -0.56 Q 32.49 -0.05 31.1 0.21 Q 29.71 0.48 28.51 0.48 L 28.51 0.48 Q 26.5 0.48 25.36 -0.46 Q 24.22 -1.4 23.45 -4.13 L 23.45 -4.13 L 19.66 -17.57 Q 19.05 -19.8 18.25 -22.82 Q 17.44 -25.84 16.75 -28.46 L 16.75 -28.46 L 16.43 -28.46 Q 16.16 -27 15.71 -25.2 Q 15.26 -23.4 14.77 -21.61 Q 14.28 -19.82 13.86 -18.36 L 13.86 -18.36 L 8.45 0.05 Q 7.66 0.24 6.76 0.3 Q 5.86 0.37 4.85 0.37 L 4.85 0.37 Q 3.9 0.37 2.69 0.21 Q 1.48 0.05 0.77 -0.21 L 0.77 -0.21 L 0.45 -0.66 Z M 20.35 -7.58 L 12.8 -7.58 Q 12.43 -7.58 11.94 -7.59 Q 11.45 -7.61 10.97 -7.62 Q 10.49 -7.63 10.1 -7.63 L 10.1 -7.63 L 5.64 -7.63 L 8.21 -14.23 L 12.14 -14.23 Q 12.51 -14.23 12.98 -14.24 Q 13.46 -14.26 13.94 -14.27 Q 14.42 -14.28 14.79 -14.28 L 14.79 -14.28 L 18.66 -14.28 Q 19.05 -14.28 19.52 -14.27 Q 19.98 -14.26 20.47 -14.24 Q 20.96 -14.23 21.33 -14.23 L 21.33 -14.23 L 25.39 -14.23 L 27.53 -7.63 L 23.05 -7.63 Q 22.68 -7.63 22.19 -7.62 Q 21.7 -7.61 21.21 -7.59 Q 20.72 -7.58 20.35 -7.58 L 20.35 -7.58 Z M 46.14 -3.52 L 39.88 -35.7 Q 40.81 -36.09 42.02 -36.38 Q 43.22 -36.68 44.36 -36.68 L 44.36 -36.68 Q 46.59 -36.68 47.61 -35.71 Q 48.63 -34.74 49.05 -32.01 L 49.05 -32.01 L 51.28 -18.31 Q 51.57 -16.59 51.85 -14.63 Q 52.13 -12.67 52.38 -10.87 Q 52.63 -9.06 52.73 -7.79 L 52.73 -7.79 Q 52.79 -7.29 52.89 -7.18 Q 53 -7.08 53.27 -7.08 L 53.27 -7.08 L 57.64 -35.51 Q 58.88 -35.72 60.35 -35.81 Q 61.82 -35.91 63.07 -35.91 L 63.07 -35.91 Q 64.37 -35.91 65.83 -35.81 Q 67.28 -35.72 68.48 -35.51 L 68.48 -35.51 L 72.53 -7.79 Q 72.61 -7.26 72.74 -7.17 Q 72.88 -7.08 73.11 -7.08 L 73.11 -7.08 Q 73.27 -8.53 73.52 -10.49 Q 73.78 -12.46 74.08 -14.54 Q 74.39 -16.62 74.68 -18.42 L 74.68 -18.42 L 77.7 -36.2 Q 78.63 -36.41 79.62 -36.46 Q 80.61 -36.52 81.49 -36.52 L 81.49 -36.52 Q 82.49 -36.52 83.58 -36.37 Q 84.67 -36.23 85.49 -35.96 L 85.49 -35.96 L 85.91 -35.43 L 78.89 -0.05 Q 77.43 0.11 75.38 0.21 Q 73.33 0.32 71.66 0.32 L 71.66 0.32 Q 69.77 0.32 68.33 -0.32 Q 66.89 -0.95 66.49 -3.52 L 66.49 -3.52 L 64.69 -14.97 Q 64.21 -18.1 63.8 -21.44 Q 63.39 -24.78 63.18 -27.27 L 63.18 -27.27 L 62.75 -27.27 Q 62.49 -24.78 62.02 -21.45 Q 61.56 -18.13 61.03 -14.97 L 61.03 -14.97 L 58.62 -0.05 Q 57.11 0.11 55.19 0.21 Q 53.27 0.32 51.54 0.32 L 51.54 0.32 Q 49.5 0.32 48.07 -0.32 Q 46.64 -0.95 46.14 -3.52 L 46.14 -3.52 Z M 92.48 -0.66 L 104.2 -36.2 Q 105.2 -36.36 106.62 -36.44 Q 108.04 -36.52 109.1 -36.52 L 109.1 -36.52 Q 110.11 -36.52 111.55 -36.44 Q 113 -36.36 114 -36.15 L 114 -36.15 L 125.4 -0.56 Q 124.52 -0.05 123.13 0.21 Q 121.74 0.48 120.55 0.48 L 120.55 0.48 Q 118.53 0.48 117.39 -0.46 Q 116.26 -1.4 115.49 -4.13 L 115.49 -4.13 L 111.7 -17.57 Q 111.09 -19.8 110.28 -22.82 Q 109.47 -25.84 108.78 -28.46 L 108.78 -28.46 L 108.46 -28.46 Q 108.2 -27 107.75 -25.2 Q 107.3 -23.4 106.81 -21.61 Q 106.32 -19.82 105.89 -18.36 L 105.89 -18.36 L 100.49 0.05 Q 99.69 0.24 98.79 0.3 Q 97.89 0.37 96.88 0.37 L 96.88 0.37 Q 95.93 0.37 94.72 0.21 Q 93.52 0.05 92.8 -0.21 L 92.8 -0.21 L 92.48 -0.66 Z M 112.39 -7.58 L 104.83 -7.58 Q 104.46 -7.58 103.97 -7.59 Q 103.48 -7.61 103.01 -7.62 Q 102.53 -7.63 102.13 -7.63 L 102.13 -7.63 L 97.68 -7.63 L 100.25 -14.23 L 104.17 -14.23 Q 104.54 -14.23 105.02 -14.24 Q 105.5 -14.26 105.97 -14.27 Q 106.45 -14.28 106.82 -14.28 L 106.82 -14.28 L 110.69 -14.28 Q 111.09 -14.28 111.55 -14.27 Q 112.02 -14.26 112.51 -14.24 Q 113 -14.23 113.37 -14.23 L 113.37 -14.23 L 117.42 -14.23 L 119.57 -7.63 L 115.09 -7.63 Q 114.72 -7.63 114.23 -7.62 Q 113.74 -7.61 113.25 -7.59 Q 112.76 -7.58 112.39 -7.58 L 112.39 -7.58 Z M 162.21 -24.99 L 162.21 -24.99 Q 162.21 -22.45 161.23 -20.47 Q 160.25 -18.5 158.76 -17.2 Q 157.28 -15.9 155.77 -15.29 L 155.77 -15.29 Q 157.25 -14.76 158.24 -13.46 Q 159.24 -12.16 159.85 -10.41 L 159.85 -10.41 L 161.44 -5.94 Q 161.89 -4.69 162.54 -3.7 Q 163.19 -2.7 164.06 -2.01 L 164.06 -2.01 Q 163.24 -0.95 161.69 -0.24 Q 160.14 0.48 158.42 0.48 L 158.42 0.48 Q 156.14 0.48 155.1 -0.76 Q 154.07 -1.99 153.22 -4.43 L 153.22 -4.43 L 151.32 -9.96 Q 150.86 -11.34 149.91 -12.31 Q 148.96 -13.28 146.84 -13.28 L 146.84 -13.28 L 141.19 -13.28 L 141.19 -19.61 Q 142.23 -19.66 143.75 -19.73 Q 145.27 -19.8 146.65 -19.84 Q 148.03 -19.88 148.59 -19.88 L 148.59 -19.88 Q 150.6 -19.88 151.67 -20.6 Q 152.75 -21.33 153.16 -22.5 Q 153.57 -23.66 153.57 -24.99 L 153.57 -24.99 Q 153.57 -26.37 153.16 -27.53 Q 152.75 -28.7 151.67 -29.4 Q 150.6 -30.1 148.59 -30.1 L 148.59 -30.1 Q 147.76 -30.1 146.78 -30.12 Q 145.8 -30.13 144.64 -30.16 L 144.64 -30.16 L 144.64 0 Q 143.58 0.19 142.42 0.25 Q 141.27 0.32 140.42 0.32 L 140.42 0.32 Q 139.68 0.32 138.46 0.25 Q 137.24 0.19 136.24 0 L 136.24 0 L 136.24 -35.93 L 136.61 -36.3 Q 140 -36.38 143.14 -36.45 Q 146.28 -36.52 149.3 -36.52 L 149.3 -36.52 Q 152.98 -36.52 155.9 -35.31 Q 158.81 -34.11 160.51 -31.56 Q 162.21 -29.02 162.21 -24.99 Z M 175.27 0 L 175.27 -36.2 Q 176.28 -36.41 177.51 -36.46 Q 178.74 -36.52 179.51 -36.52 L 179.51 -36.52 Q 180.36 -36.52 181.53 -36.46 Q 182.69 -36.41 183.75 -36.2 L 183.75 -36.2 L 183.75 0 Q 182.69 0.19 181.53 0.25 Q 180.36 0.32 179.51 0.32 L 179.51 0.32 Q 178.74 0.32 177.51 0.25 Q 176.28 0.19 175.27 0 L 175.27 0 Z" stroke-linecap="round" />
</g>
</g>
</g>
<g transform="matrix(1.6143703153560331 0 0 1.614370315356033 640.620034756703 384.8585855727414)" id="shape-0f766635-0433-4cda-a1d7-7a5ea7334a50"  >
<g style=""  paint-order="stroke"   >
		<g transform="matrix(1 0 0 1 63.225503768381756 -3.360133205772982)" id="path-04_00000107572474299201622420000008305462306271620493_"  >
<path style="stroke: none; stroke-width: 1; stroke-dasharray: none; stroke-linecap: butt; stroke-dashoffset: 0; stroke-linejoin: miter; stroke-miterlimit: 4; fill: rgb(98,204,238); fill-rule: nonzero; opacity: 1;"  paint-order="stroke"  transform=" translate(-188.22551, -64.80216499999999)" d="M 184.21802 8.27548 C 163.50221 8.27548 145.38564 19.378500000000003 135.47539 35.95389 C 144.79688000000002 27.02427 157.43317000000002 21.5272 171.36104 21.5272 C 200.02316000000002 21.5272 223.25853 44.76257 223.25853 73.42469 C 223.25853 95.00327 210.08638000000002 113.50130999999999 191.34624000000002 121.32884999999999 C 219.32552 117.82032 240.97563000000002 93.96303999999999 240.97563000000002 65.03287999999999 C 240.97563 33.68661 215.56439 8.27548 184.21802 8.27548 z" stroke-linecap="round" />
</g>
		<g transform="matrix(1 0 0 1 -61.82495623161825 2.6855567942270397)" id="path-03_00000012446034015289973610000010110443108259194281_"  >
<path style="stroke: none; stroke-width: 1; stroke-dasharray: none; stroke-linecap: butt; stroke-dashoffset: 0; stroke-linejoin: miter; stroke-miterlimit: 4; fill: rgb(98,204,238); fill-rule: nonzero; opacity: 1;"  paint-order="stroke"  transform=" translate(-63.175050000000006, -70.84785500000001)" d="M 67.18253 127.37454 C 87.89834 127.37454 106.01491 116.27150999999999 115.92517000000001 99.69613 C 106.60369000000001 108.62576 93.96739000000001 114.12281 80.03951 114.12281 C 51.377390000000005 114.12281 28.142030000000005 90.88745 28.142030000000005 62.22533 C 28.142030000000005 40.64675 41.31419 22.14871 60.054320000000004 14.321170000000002 C 32.075050000000005 17.829700000000003 10.424930000000003 41.68697 10.424930000000003 70.61713 C 10.42493 101.96341 35.83616 127.37454 67.18253 127.37454 z" stroke-linecap="round" />
</g>
		<g transform="matrix(1 0 0 1 1.421085e-14 0)" id="path-02_00000128483648199354410570000008738359189022351752_"  >
<path style="stroke: none; stroke-width: 1; stroke-dasharray: none; stroke-linecap: butt; stroke-dashoffset: 0; stroke-linejoin: miter; stroke-miterlimit: 4; fill: rgb(9,148,220); fill-rule: nonzero; opacity: 1;"  paint-order="stroke"  transform=" translate(-125.00000623161827, -68.16229820577297)" d="M 159.83867 13.78111 C 190.55606 -3.071019999999999 229.49049000000002 11.45973 243.99259 42.89196 C 259.62217 76.84672 243.61489 116.72104999999999 209.18021000000002 131.05955999999998 C 170.54123 146.35353999999998 136.49530000000001 127.05552999999998 122.10070000000002 89.63471999999997 C 118.65622000000002 81.21084999999997 116.16117000000001 70.39105999999998 113.62621000000001 61.641039999999975 C 107.07066000000002 38.894489999999976 92.19403000000001 17.847359999999973 66.88942000000002 17.228119999999976 C 41.42745 16.0358 18.1762 34.79732 13.58206 59.81746 C 7.41598 89.77163 28.28899 119.16551 58.0982 124.8418 C 68.78202999999999 127.04805 79.86121 126.17263000000001 90.22727 122.50434000000001 C 81.14082 127.58551000000001 70.40467000000001 129.91490000000002 59.938410000000005 129.54677 C 23.09773 128.24695 -4.38067 94.02483 0.57963 57.76238 C 4.53279 25.14824 33.15846 0.32658 65.89334 0.00552 C 87.62078 -0.27775999999999995 106.19478 10.35914 118.24332 28.094070000000002 C 126.06139999999999 39.419360000000005 130.57564 52.57305 133.99090999999999 65.70779 C 137.96155 81.92004 144.45722999999998 99.21834000000001 157.74273 109.8543 C 174.73513 123.72838999999999 200.76782 121.19677 217.434 107.88721 C 228.32563 99.27202 235.70588 86.11821 237.16778 72.2975 C 241.88708 29.75534 199.2529 -0.49775 159.83867 13.78111 L 159.83867 13.78111 z" stroke-linecap="round" />
</g>
</g>
</g>
<g transform="matrix(1.9211538461538462 0 0 1.9211538461538462 458.28088850375264 573.0757403874765)" id="tagline-8a769808-2525-4e68-9767-14ec28b4e890-logo"  >
<g style=""  paint-order="stroke"   >
		<g transform="matrix(1 0 0 1 0 0)" id="tagline-8a769808-2525-4e68-9767-14ec28b4e890-logo-path-0"  >
<path style="stroke: none; stroke-width: 0; stroke-dasharray: none; stroke-linecap: butt; stroke-dashoffset: 0; stroke-linejoin: miter; stroke-miterlimit: 4; fill: rgb(9,148,220); fill-rule: nonzero; opacity: 1;"  paint-order="stroke"  transform=" translate(-16.11, 20.145)" d="M 0.89 -3.51 L 0.89 -3.51 Q 1.06 -5.52 2.12 -7.45 Q 3.19 -9.38 4.54 -10.56 L 4.54 -10.56 Q 7.02 -9.09 10.18 -7.89 Q 13.33 -6.7 16.49 -6.7 L 16.49 -6.7 Q 19.06 -6.7 20.18 -7.94 Q 21.3 -9.17 21.3 -10.59 L 21.3 -10.59 Q 21.3 -11.53 20.68 -12.76 Q 20.06 -13.98 17.58 -15.02 L 17.58 -15.02 L 10.47 -17.97 Q 6.81 -19.5 4.43 -22.07 Q 2.04 -24.63 2.04 -28.85 L 2.04 -28.85 Q 2.04 -32.54 3.95 -35.31 Q 5.87 -38.08 9.13 -39.63 Q 12.39 -41.18 16.4 -41.18 L 16.4 -41.18 Q 20.59 -41.18 24.26 -40.09 Q 27.94 -39 30.24 -37.79 L 30.24 -37.79 Q 30.12 -35.75 29.28 -33.88 Q 28.44 -32.01 27.05 -30.74 L 27.05 -30.74 Q 24.81 -31.8 21.8 -32.7 Q 18.79 -33.6 16.4 -33.6 L 16.4 -33.6 Q 13.87 -33.6 12.79 -32.45 Q 11.71 -31.3 11.71 -30.12 L 11.71 -30.12 Q 11.71 -29 12.46 -28.11 Q 13.22 -27.23 15.16 -26.4 L 15.16 -26.4 L 22.42 -23.42 Q 25.28 -22.24 27.27 -20.49 Q 29.26 -18.73 30.3 -16.53 Q 31.33 -14.34 31.33 -11.77 L 31.33 -11.77 Q 31.33 -8.2 29.6 -5.32 Q 27.88 -2.45 24.43 -0.78 Q 20.97 0.89 15.81 0.89 L 15.81 0.89 Q 12.24 0.89 8.2 -0.25 Q 4.16 -1.39 0.89 -3.51 Z" stroke-linecap="round" />
</g>
</g>
</g>
<g transform="matrix(1.9211538461538462 0 0 1.9211538461538462 525.8566950096372 227.33013970553526)" id="tagline-57c1e8d5-cd05-424a-a032-a6af3d3ebdfa-logo"  >
<g style=""  paint-order="stroke"   >
		<g transform="matrix(1 0 0 1 0 0)" id="tagline-57c1e8d5-cd05-424a-a032-a6af3d3ebdfa-logo-path-0"  >
<filter id="SVGID_297262" y="-114.77925158838354%" height="329.5585031767671%" x="-60.23165818339057%" width="220.46331636678116%" >
	<feGaussianBlur in="SourceAlpha" stdDeviation="9.335756281455781"></feGaussianBlur>
	<feOffset dx="0" dy="0" result="oBlur" ></feOffset>
	<feFlood flood-color="rgb(98,204,238)" flood-opacity="1"/>
	<feComposite in2="oBlur" operator="in" />
	<feMerge>
		<feMergeNode></feMergeNode>
		<feMergeNode in="SourceGraphic"></feMergeNode>
	</feMerge>
</filter>
<path style="stroke: none; stroke-width: 0; stroke-dasharray: none; stroke-linecap: butt; stroke-dashoffset: 0; stroke-linejoin: miter; stroke-miterlimit: 4; fill: rgb(98,204,238); fill-rule: nonzero; opacity: 1;filter: url(#SVGID_297262);"  paint-order="stroke"  transform=" translate(-29.665, 42.47)" d="M 51.84 -32.62 L 7.48 -32.62 Q 6.85 -35.14 6.66 -37.98 Q 6.46 -40.81 6.46 -42.47 L 6.46 -42.47 Q 6.46 -44.12 6.66 -47 Q 6.85 -49.87 7.48 -52.32 L 7.48 -52.32 L 51.84 -52.32 Q 52.47 -49.87 52.67 -47 Q 52.87 -44.12 52.87 -42.47 L 52.87 -42.47 Q 52.87 -40.81 52.67 -37.98 Q 52.47 -35.14 51.84 -32.62 L 51.84 -32.62 Z" stroke-linecap="round" />
</g>
</g>
</g>
<g transform="matrix(1.9211538461538462 0 0 1.9211538461538462 738.8223140738781 298.36440611007595)" id="tagline-d198e9c2-597d-4c7a-898b-a45c489a5002-logo"  >
<g style=""  paint-order="stroke"   >
		<g transform="matrix(1 0 0 1 0 0)" id="tagline-d198e9c2-597d-4c7a-898b-a45c489a5002-logo-path-0"  >
<filter id="SVGID_297263" y="-42.19586343222166%" height="184.3917268644433%" x="-52.463475439645364%" width="204.92695087929073%" >
	<feGaussianBlur in="SourceAlpha" stdDeviation="10.673990724555395"></feGaussianBlur>
	<feOffset dx="0" dy="0" result="oBlur" ></feOffset>
	<feFlood flood-color="rgb(98,204,238)" flood-opacity="1"/>
	<feComposite in2="oBlur" operator="in" />
	<feMerge>
		<feMergeNode></feMergeNode>
		<feMergeNode in="SourceGraphic"></feMergeNode>
	</feMerge>
</filter>
<path style="stroke: none; stroke-width: 0; stroke-dasharray: none; stroke-linecap: butt; stroke-dashoffset: 0; stroke-linejoin: miter; stroke-miterlimit: 4; fill: rgb(98,204,238); fill-rule: nonzero; opacity: 1;filter: url(#SVGID_297263);"  paint-order="stroke"  transform=" translate(-34.730000000000004, 47.54)" d="M 1.85 -89.35 L 1.85 -89.35 Q 1.85 -92.63 2.39 -95.63 L 2.39 -95.63 L 66.79 -95.63 Q 67.61 -92.22 67.61 -89.76 L 67.61 -89.76 Q 67.61 -86.13 65.59 -84.56 Q 63.57 -82.99 59.2 -82.99 L 59.2 -82.99 L 50.11 -82.99 Q 49.22 -82.99 46.11 -83.09 Q 43 -83.19 41.97 -83.19 L 41.97 -83.19 L 41.97 0 Q 38.76 0.55 34.59 0.55 L 34.59 0.55 Q 30.21 0.55 27 0 L 27 0 L 27 -72.8 Q 27 -74.65 27.07 -77.93 Q 27.14 -81.21 27.14 -83.19 L 27.14 -83.19 L 27 -83.19 Q 26.11 -83.19 23.11 -83.09 Q 20.1 -82.99 19.07 -82.99 L 19.07 -82.99 L 2.39 -82.99 Q 1.85 -86 1.85 -89.35 Z" stroke-linecap="round" />
</g>
</g>
</g>
</svg>