<?xml version="1.0" encoding="UTF-8" standalone="no" ?>
<!DOCTYPE svg PUBLIC "-//W3C//DTD SVG 1.1//EN" "http://www.w3.org/Graphics/SVG/1.1/DTD/svg11.dtd">
<svg xmlns="http://www.w3.org/2000/svg" xmlns:xlink="http://www.w3.org/1999/xlink" version="1.1" width="1280" height="1024" viewBox="0 0 1280 1024" xml:space="preserve">
<desc>Created with Fabric.js 5.3.0</desc>
<defs>
</defs>
<g transform="matrix(1 0 0 1 640 512)" id="background-logo"  >
<rect style="stroke: none; stroke-width: 0; stroke-dasharray: none; stroke-linecap: butt; stroke-dashoffset: 0; stroke-linejoin: miter; stroke-miterlimit: 4; fill: rgb(4,4,68); fill-rule: nonzero; opacity: 1;"  paint-order="stroke"  x="-640" y="-512" rx="0" ry="0" width="1280" height="1024" />
</g>
<g transform="matrix(1.4046734987454843 0 0 1.4046734987454843 640.620034756703 452.09031522474174)" id="shape-bfc2e0ba-a485-4c2e-a9d0-128091ab3c67"  >
<g style=""  paint-order="stroke"   >
		<g transform="matrix(1 0 0 1 63.225503768381756 -3.360133205772982)" id="path-04_00000107572474299201622420000008305462306271620493_"  >
<path style="stroke: none; stroke-width: 1; stroke-dasharray: none; stroke-linecap: butt; stroke-dashoffset: 0; stroke-linejoin: miter; stroke-miterlimit: 4; fill: rgb(98,204,238); fill-rule: nonzero; opacity: 1;"  paint-order="stroke"  transform=" translate(-188.22551, -64.80216499999999)" d="M 184.21802 8.27548 C 163.50221 8.27548 145.38564 19.378500000000003 135.47539 35.95389 C 144.79688000000002 27.02427 157.43317000000002 21.5272 171.36104 21.5272 C 200.02316000000002 21.5272 223.25853 44.76257 223.25853 73.42469 C 223.25853 95.00327 210.08638000000002 113.50130999999999 191.34624000000002 121.32884999999999 C 219.32552 117.82032 240.97563000000002 93.96303999999999 240.97563000000002 65.03287999999999 C 240.97563 33.68661 215.56439 8.27548 184.21802 8.27548 z" stroke-linecap="round" />
</g>
		<g transform="matrix(1 0 0 1 -61.82495623161825 2.6855567942270397)" id="path-03_00000012446034015289973610000010110443108259194281_"  >
<path style="stroke: none; stroke-width: 1; stroke-dasharray: none; stroke-linecap: butt; stroke-dashoffset: 0; stroke-linejoin: miter; stroke-miterlimit: 4; fill: rgb(98,204,238); fill-rule: nonzero; opacity: 1;"  paint-order="stroke"  transform=" translate(-63.175050000000006, -70.84785500000001)" d="M 67.18253 127.37454 C 87.89834 127.37454 106.01491 116.27150999999999 115.92517000000001 99.69613 C 106.60369000000001 108.62576 93.96739000000001 114.12281 80.03951 114.12281 C 51.377390000000005 114.12281 28.142030000000005 90.88745 28.142030000000005 62.22533 C 28.142030000000005 40.64675 41.31419 22.14871 60.054320000000004 14.321170000000002 C 32.075050000000005 17.829700000000003 10.424930000000003 41.68697 10.424930000000003 70.61713 C 10.42493 101.96341 35.83616 127.37454 67.18253 127.37454 z" stroke-linecap="round" />
</g>
		<g transform="matrix(1 0 0 1 1.421085e-14 0)" id="path-02_00000128483648199354410570000008738359189022351752_"  >
<path style="stroke: none; stroke-width: 1; stroke-dasharray: none; stroke-linecap: butt; stroke-dashoffset: 0; stroke-linejoin: miter; stroke-miterlimit: 4; fill: rgb(9,148,220); fill-rule: nonzero; opacity: 1;"  paint-order="stroke"  transform=" translate(-125.00000623161827, -68.16229820577297)" d="M 159.83867 13.78111 C 190.55606 -3.071019999999999 229.49049000000002 11.45973 243.99259 42.89196 C 259.62217 76.84672 243.61489 116.72104999999999 209.18021000000002 131.05955999999998 C 170.54123 146.35353999999998 136.49530000000001 127.05552999999998 122.10070000000002 89.63471999999997 C 118.65622000000002 81.21084999999997 116.16117000000001 70.39105999999998 113.62621000000001 61.641039999999975 C 107.07066000000002 38.894489999999976 92.19403000000001 17.847359999999973 66.88942000000002 17.228119999999976 C 41.42745 16.0358 18.1762 34.79732 13.58206 59.81746 C 7.41598 89.77163 28.28899 119.16551 58.0982 124.8418 C 68.78202999999999 127.04805 79.86121 126.17263000000001 90.22727 122.50434000000001 C 81.14082 127.58551000000001 70.40467000000001 129.91490000000002 59.938410000000005 129.54677 C 23.09773 128.24695 -4.38067 94.02483 0.57963 57.76238 C 4.53279 25.14824 33.15846 0.32658 65.89334 0.00552 C 87.62078 -0.27775999999999995 106.19478 10.35914 118.24332 28.094070000000002 C 126.06139999999999 39.419360000000005 130.57564 52.57305 133.99090999999999 65.70779 C 137.96155 81.92004 144.45722999999998 99.21834000000001 157.74273 109.8543 C 174.73513 123.72838999999999 200.76782 121.19677 217.434 107.88721 C 228.32563 99.27202 235.70588 86.11821 237.16778 72.2975 C 241.88708 29.75534 199.2529 -0.49775 159.83867 13.78111 L 159.83867 13.78111 z" stroke-linecap="round" />
</g>
</g>
</g>
<g transform="matrix(1.9211538461538462 0 0 1.9211538461538462 464.3840959712097 648.8012985126952)" id="text-logo"  >
<g style=""  paint-order="stroke"   >
		<g transform="matrix(1 0 0 1 0 0)" id="text-logo-path-0"  >
<path style="stroke: none; stroke-width: 0; stroke-dasharray: none; stroke-linecap: butt; stroke-dashoffset: 0; stroke-linejoin: miter; stroke-miterlimit: 4; fill: rgb(9,148,220); fill-rule: nonzero; opacity: 1;"  paint-order="stroke"  transform=" translate(-16.11, 20.145)" d="M 0.89 -3.51 L 0.89 -3.51 Q 1.06 -5.52 2.12 -7.45 Q 3.19 -9.38 4.54 -10.56 L 4.54 -10.56 Q 7.02 -9.09 10.18 -7.89 Q 13.33 -6.7 16.49 -6.7 L 16.49 -6.7 Q 19.06 -6.7 20.18 -7.94 Q 21.3 -9.17 21.3 -10.59 L 21.3 -10.59 Q 21.3 -11.53 20.68 -12.76 Q 20.06 -13.98 17.58 -15.02 L 17.58 -15.02 L 10.47 -17.97 Q 6.81 -19.5 4.43 -22.07 Q 2.04 -24.63 2.04 -28.85 L 2.04 -28.85 Q 2.04 -32.54 3.95 -35.31 Q 5.87 -38.08 9.13 -39.63 Q 12.39 -41.18 16.4 -41.18 L 16.4 -41.18 Q 20.59 -41.18 24.26 -40.09 Q 27.94 -39 30.24 -37.79 L 30.24 -37.79 Q 30.12 -35.75 29.28 -33.88 Q 28.44 -32.01 27.05 -30.74 L 27.05 -30.74 Q 24.81 -31.8 21.8 -32.7 Q 18.79 -33.6 16.4 -33.6 L 16.4 -33.6 Q 13.87 -33.6 12.79 -32.45 Q 11.71 -31.3 11.71 -30.12 L 11.71 -30.12 Q 11.71 -29 12.46 -28.11 Q 13.22 -27.23 15.16 -26.4 L 15.16 -26.4 L 22.42 -23.42 Q 25.28 -22.24 27.27 -20.49 Q 29.26 -18.73 30.3 -16.53 Q 31.33 -14.34 31.33 -11.77 L 31.33 -11.77 Q 31.33 -8.2 29.6 -5.32 Q 27.88 -2.45 24.43 -0.78 Q 20.97 0.89 15.81 0.89 L 15.81 0.89 Q 12.24 0.89 8.2 -0.25 Q 4.16 -1.39 0.89 -3.51 Z" stroke-linecap="round" />
</g>
</g>
</g>
<g transform="matrix(1.9211538461538462 0 0 1.9211538461538462 678.5474831383617 647.9228509165414)" id="tagline-460daf15-4505-41f6-8bad-da06079855f4-logo"  >
<g style=""  paint-order="stroke"   >
		<g transform="matrix(1 0 0 1 0 0)" id="tagline-460daf15-4505-41f6-8bad-da06079855f4-logo-path-0"  >
<path style="stroke: none; stroke-width: 0; stroke-dasharray: none; stroke-linecap: butt; stroke-dashoffset: 0; stroke-linejoin: miter; stroke-miterlimit: 4; fill: rgb(98,204,238); fill-rule: nonzero; opacity: 1;"  paint-order="stroke"  transform=" translate(-89.415, 20.605)" d="M 0.5 -0.74 L 13.54 -40.3 Q 14.66 -40.47 16.24 -40.56 Q 17.82 -40.65 19 -40.65 L 19 -40.65 Q 20.12 -40.65 21.73 -40.56 Q 23.33 -40.47 24.46 -40.24 L 24.46 -40.24 L 37.14 -0.62 Q 36.17 -0.06 34.62 0.24 Q 33.07 0.53 31.74 0.53 L 31.74 0.53 Q 29.5 0.53 28.23 -0.52 Q 26.96 -1.56 26.11 -4.6 L 26.11 -4.6 L 21.89 -19.56 Q 21.21 -22.04 20.31 -25.4 Q 19.41 -28.76 18.64 -31.68 L 18.64 -31.68 L 18.29 -31.68 Q 18 -30.06 17.49 -28.05 Q 16.99 -26.05 16.45 -24.06 Q 15.9 -22.07 15.43 -20.44 L 15.43 -20.44 L 9.41 0.06 Q 8.53 0.27 7.52 0.34 Q 6.52 0.41 5.4 0.41 L 5.4 0.41 Q 4.34 0.41 2.99 0.24 Q 1.65 0.06 0.86 -0.24 L 0.86 -0.24 L 0.5 -0.74 Z M 22.66 -8.44 L 14.25 -8.44 Q 13.84 -8.44 13.29 -8.45 Q 12.74 -8.47 12.21 -8.48 Q 11.68 -8.5 11.24 -8.5 L 11.24 -8.5 L 6.28 -8.5 L 9.15 -15.84 L 13.51 -15.84 Q 13.92 -15.84 14.46 -15.86 Q 14.99 -15.87 15.52 -15.89 Q 16.05 -15.9 16.46 -15.9 L 16.46 -15.9 L 20.77 -15.9 Q 21.21 -15.9 21.73 -15.89 Q 22.24 -15.87 22.79 -15.86 Q 23.33 -15.84 23.75 -15.84 L 23.75 -15.84 L 28.26 -15.84 L 30.65 -8.5 L 25.67 -8.5 Q 25.25 -8.5 24.71 -8.48 Q 24.16 -8.47 23.61 -8.45 Q 23.07 -8.44 22.66 -8.44 L 22.66 -8.44 Z M 49.83 -3.95 L 44.1 -28.88 Q 45.43 -29.41 46.73 -29.69 Q 48.03 -29.97 49.24 -29.97 L 49.24 -29.97 Q 51.45 -29.97 52.35 -28.95 Q 53.25 -27.94 53.63 -26.05 L 53.63 -26.05 L 55.46 -16.52 Q 56.05 -13.66 56.45 -11.24 Q 56.85 -8.82 56.99 -7.29 L 56.99 -7.29 Q 57.08 -6.81 57.47 -6.81 L 57.47 -6.81 L 60.71 -29.12 Q 61.83 -29.38 63.51 -29.49 Q 65.2 -29.59 66.02 -29.59 L 66.02 -29.59 Q 66.94 -29.59 68.69 -29.49 Q 70.45 -29.38 71.48 -29.12 L 71.48 -29.12 L 74.81 -7.29 Q 74.93 -6.81 75.28 -6.81 L 75.28 -6.81 Q 75.61 -8.82 75.99 -11.3 Q 76.38 -13.78 76.91 -16.52 L 76.91 -16.52 L 79.53 -29.41 Q 80.3 -29.62 81.26 -29.71 Q 82.22 -29.8 83.04 -29.8 L 83.04 -29.8 Q 83.99 -29.8 85.48 -29.66 Q 86.97 -29.53 87.94 -29.03 L 87.94 -29.03 L 88.21 -28.47 L 81.33 0 Q 79.95 0.21 78.06 0.28 Q 76.17 0.35 74.55 0.35 L 74.55 0.35 Q 71.89 0.35 70.53 -0.4 Q 69.18 -1.15 68.76 -3.84 L 68.76 -3.84 L 67.76 -10.18 Q 67.56 -11.65 67.29 -13.45 Q 67.02 -15.25 66.76 -17.26 Q 66.49 -19.26 66.26 -21.3 L 66.26 -21.3 L 65.9 -21.3 Q 65.7 -19.29 65.42 -17.32 Q 65.14 -15.34 64.87 -13.56 Q 64.61 -11.77 64.37 -10.3 L 64.37 -10.3 L 62.72 0 Q 61.27 0.18 59.34 0.27 Q 57.41 0.35 55.76 0.35 L 55.76 0.35 Q 53.16 0.35 51.79 -0.49 Q 50.42 -1.33 49.83 -3.95 L 49.83 -3.95 Z M 96.97 -8.05 L 96.97 -8.05 Q 96.97 -11.62 98.62 -13.88 Q 100.27 -16.14 102.94 -17.23 Q 105.61 -18.32 108.65 -18.32 L 108.65 -18.32 Q 109.98 -18.32 112 -18.26 Q 114.02 -18.2 115.64 -17.88 L 115.64 -17.88 L 115.64 -12.04 Q 114.37 -12.33 112.59 -12.38 Q 110.8 -12.42 109.62 -12.42 L 109.62 -12.42 Q 107.65 -12.42 106.79 -11.37 Q 105.93 -10.33 105.93 -8.67 L 105.93 -8.67 Q 105.93 -7.49 106.67 -6.71 Q 107.41 -5.93 108.65 -5.93 L 108.65 -5.93 Q 110.42 -5.93 112.25 -7.2 Q 114.08 -8.47 115.34 -10.68 L 115.34 -10.68 L 116.64 -4.84 Q 115.49 -3.48 114.02 -2.15 Q 112.54 -0.83 110.57 0.03 Q 108.59 0.89 105.93 0.89 L 105.93 0.89 Q 102.9 0.89 100.9 -0.47 Q 98.91 -1.83 97.94 -3.89 Q 96.97 -5.96 96.97 -8.05 Z M 123.72 -4.25 L 123.72 -4.25 Q 123.49 -3.04 122.63 -1.62 Q 121.78 -0.21 120.92 0.47 L 120.92 0.47 Q 118.32 0.41 116.63 -0.71 Q 114.93 -1.83 114.03 -3.47 Q 113.13 -5.1 112.87 -6.67 L 112.87 -6.67 L 112.87 -19.29 Q 112.87 -21.15 111.94 -22.1 Q 111.01 -23.04 109 -23.04 L 109 -23.04 Q 107.11 -23.04 104.87 -22.43 Q 102.63 -21.83 100.3 -21.15 L 100.3 -21.15 Q 99.33 -22.27 98.78 -24.06 Q 98.23 -25.84 98.09 -27.55 L 98.09 -27.55 Q 100.06 -28.38 102.48 -28.95 Q 104.9 -29.53 107.31 -29.84 Q 109.71 -30.15 111.6 -30.15 L 111.6 -30.15 Q 114.19 -30.15 116.58 -29.19 Q 118.97 -28.23 120.52 -26.03 Q 122.07 -23.84 122.07 -20.09 L 122.07 -20.09 L 122.07 -8.08 Q 122.07 -6.81 122.47 -5.84 Q 122.87 -4.87 123.72 -4.25 Z M 155.94 -29.35 L 155.94 -29.35 Q 155.94 -27.73 155.35 -25.21 Q 154.76 -22.69 153.64 -20.74 L 153.64 -20.74 Q 152.87 -21.03 152.12 -21.15 Q 151.36 -21.27 150.6 -21.36 L 150.6 -21.36 Q 149.42 -21.36 148.47 -20.93 Q 147.53 -20.5 146.76 -19.68 Q 146 -18.85 145.32 -17.64 Q 144.64 -16.43 144.02 -14.87 L 144.02 -14.87 L 142.99 -16.25 Q 143.13 -18.7 143.61 -21.11 Q 144.08 -23.51 145.05 -25.49 Q 146.03 -27.46 147.72 -28.66 Q 149.42 -29.85 152.01 -29.85 L 152.01 -29.85 Q 153.37 -29.85 154.21 -29.72 Q 155.05 -29.59 155.94 -29.35 Z M 134.31 -25.16 L 134.31 -25.16 Q 134.55 -26.4 135.41 -27.83 Q 136.26 -29.26 137.12 -29.91 L 137.12 -29.91 Q 141.22 -29.62 143.3 -26.89 Q 145.38 -24.16 145.76 -19.74 L 145.76 -19.74 L 145.76 0 Q 144.79 0.18 143.58 0.27 Q 142.37 0.35 141.16 0.35 L 141.16 0.35 Q 140.01 0.35 138.78 0.27 Q 137.56 0.18 136.53 0 L 136.53 0 L 136.53 -19.06 Q 136.53 -21.68 135.77 -23.17 Q 135.02 -24.66 134.31 -25.16 Z M 178.33 -22.63 L 178.33 0 Q 177.35 0.18 176.13 0.27 Q 174.91 0.35 173.73 0.35 L 173.73 0.35 Q 172.58 0.35 171.35 0.27 Q 170.13 0.18 169.09 0 L 169.09 0 L 169.09 -19.53 Q 169.09 -21 168.49 -21.98 Q 167.88 -22.95 166.32 -22.95 L 166.32 -22.95 L 165.44 -22.95 Q 165.05 -24.46 165.05 -26.08 L 165.05 -26.08 Q 165.05 -26.85 165.14 -27.72 Q 165.23 -28.59 165.44 -29.38 L 165.44 -29.38 Q 166.79 -29.53 168.22 -29.6 Q 169.65 -29.68 170.63 -29.68 L 170.63 -29.68 L 171.9 -29.68 Q 174.88 -29.68 176.6 -27.77 Q 178.33 -25.87 178.33 -22.63 L 178.33 -22.63 Z M 167.32 -37.73 L 167.32 -37.73 Q 167.32 -38.56 167.5 -39.46 Q 167.68 -40.36 168 -41.18 L 168 -41.18 Q 168.77 -41.57 169.99 -41.83 Q 171.22 -42.1 172.4 -42.1 L 172.4 -42.1 Q 173.61 -42.1 174.86 -41.83 Q 176.12 -41.57 176.79 -41.18 L 176.79 -41.18 Q 177.12 -40.36 177.3 -39.43 Q 177.47 -38.5 177.47 -37.73 L 177.47 -37.73 Q 177.47 -36.93 177.3 -36.02 Q 177.12 -35.11 176.79 -34.31 L 176.79 -34.31 Q 176.12 -33.93 174.86 -33.66 Q 173.61 -33.39 172.4 -33.39 L 172.4 -33.39 Q 171.22 -33.39 169.95 -33.64 Q 168.68 -33.9 168 -34.31 L 168 -34.31 Q 167.68 -35.11 167.5 -36.02 Q 167.32 -36.93 167.32 -37.73 Z" stroke-linecap="round" />
</g>
</g>
</g>
<g transform="matrix(1.9211538461538462 0 0 1.9211538461538462 554.4125131257188 321.7416541356931)" id="tagline-1aaabfb9-9b00-4a5d-b790-a5f8d1a7eb4c-logo"  >
<g style=""  paint-order="stroke"   >
		<g transform="matrix(1 0 0 1 0 0)" id="tagline-1aaabfb9-9b00-4a5d-b790-a5f8d1a7eb4c-logo-path-0"  >
<filter id="SVGID_562157" y="-178.47860538827257%" height="456.95721077654514%" x="-74.525627044711%" width="249.051254089422%" >
	<feGaussianBlur in="SourceAlpha" stdDeviation="10"></feGaussianBlur>
	<feOffset dx="0" dy="0" result="oBlur" ></feOffset>
	<feFlood flood-color="rgb(9,148,220)" flood-opacity="1"/>
	<feComposite in2="oBlur" operator="in" />
	<feMerge>
		<feMergeNode></feMergeNode>
		<feMergeNode in="SourceGraphic"></feMergeNode>
	</feMerge>
</filter>
<path style="stroke: none; stroke-width: 0; stroke-dasharray: none; stroke-linecap: butt; stroke-dashoffset: 0; stroke-linejoin: miter; stroke-miterlimit: 4; fill: rgb(98,204,238); fill-rule: nonzero; opacity: 1;filter: url(#SVGID_562157);"  paint-order="stroke"  transform=" translate(-24.860000000000003, 37.86)" d="M 6.52 -37.79 L 6.52 -37.79 Q 6.52 -41.67 7.21 -44.17 L 7.21 -44.17 L 42.43 -44.17 Q 43.2 -41.39 43.2 -37.79 L 43.2 -37.79 Q 43.2 -34.32 42.43 -31.55 L 42.43 -31.55 L 7.21 -31.55 Q 6.52 -34.04 6.52 -37.79 Z" stroke-linecap="round" />
</g>
</g>
</g>
<g transform="matrix(1.9211538461538462 0 0 1.9211538461538462 721.8483071553654 385.02566652941516)" id="tagline-6a93164e-27d2-429f-a14c-f4c04273dcfe-logo"  >
<g style=""  paint-order="stroke"   >
		<g transform="matrix(1 0 0 1 0 0)" id="tagline-6a93164e-27d2-429f-a14c-f4c04273dcfe-logo-path-0"  >
<filter id="SVGID_562158" y="-44.260067928190196%" height="188.5201358563804%" x="-55.47986517651233%" width="210.95973035302467%" >
	<feGaussianBlur in="SourceAlpha" stdDeviation="10"></feGaussianBlur>
	<feOffset dx="0" dy="0" result="oBlur" ></feOffset>
	<feFlood flood-color="rgb(9,148,220)" flood-opacity="1"/>
	<feComposite in2="oBlur" operator="in" />
	<feMerge>
		<feMergeNode></feMergeNode>
		<feMergeNode in="SourceGraphic"></feMergeNode>
	</feMerge>
</filter>
<path style="stroke: none; stroke-width: 0; stroke-dasharray: none; stroke-linecap: butt; stroke-dashoffset: 0; stroke-linejoin: miter; stroke-miterlimit: 4; fill: rgb(98,204,238); fill-rule: nonzero; opacity: 1;filter: url(#SVGID_562158);"  paint-order="stroke"  transform=" translate(-29.765, 40.75)" d="M 1.58 -76.58 L 1.58 -76.58 Q 1.58 -79.39 2.05 -81.97 L 2.05 -81.97 L 57.25 -81.97 Q 57.95 -79.04 57.95 -76.93 L 57.95 -76.93 Q 57.95 -73.83 56.22 -72.48 Q 54.49 -71.13 50.74 -71.13 L 50.74 -71.13 L 42.95 -71.13 Q 42.19 -71.13 39.52 -71.22 Q 36.86 -71.31 35.98 -71.31 L 35.98 -71.31 L 35.98 0 Q 33.22 0.47 29.65 0.47 L 29.65 0.47 Q 25.9 0.47 23.14 0 L 23.14 0 L 23.14 -62.4 Q 23.14 -63.98 23.2 -66.8 Q 23.26 -69.61 23.26 -71.31 L 23.26 -71.31 L 23.14 -71.31 Q 22.38 -71.31 19.8 -71.22 Q 17.23 -71.13 16.35 -71.13 L 16.35 -71.13 L 2.05 -71.13 Q 1.58 -73.71 1.58 -76.58 Z" stroke-linecap="round" />
</g>
</g>
</g>
</svg>